<svg xmlns="http://www.w3.org/2000/svg" viewBox="0 0 20 22"><g><path d="M16.3 2.321l-.642 16a1.09 1.09 0 01-1.1 1.011H3.435a1.089 1.089 0 01-1.1-1.011l-.635-16A.342.342 0 001.334 2 .339.339 0 001 2.346l.642 16A1.772 1.772 0 003.435 20h11.13a1.773 1.773 0 001.792-1.652L17 2.346a.35.35 0 00-.7-.026z"/><path data-name="Shape" d="M9 5.333v11.334c0 .184.224.333.5.333s.5-.149.5-.333V5.333C10 5.149 9.776 5 9.5 5s-.5.149-.5.333zM5 5.343l.333 11.333A.334.334 0 106 16.657L5.667 5.324A.334.334 0 105 5.343zM12.333 5.324L12 16.657a.333.333 0 10.666.02L13 5.343a.334.334 0 10-.667-.019zM.346 3h17.308c.191 0 .346-.224.346-.5s-.155-.5-.346-.5H.346C.155 2 0 2.224 0 2.5s.155.5.346.5zM5.68 2l.392-.84a1.114 1.114 0 01.915-.532h4.026a1.109 1.109 0 01.916.532l.391.84.68-.233-.392-.84A1.843 1.843 0 0011.013 0H6.987a1.848 1.848 0 00-1.6.927L5 1.767z"/></g></svg>