<svg xmlns="http://www.w3.org/2000/svg" viewBox="0 0 19.781 16.345"><path d="M3.567 16.346a1.147 1.147 0 01-1.144-1.035l-.8-8.044h-.589A1.035 1.035 0 010 6.233V4.316a1.035 1.035 0 011.034-1.034h3.274a.318.318 0 01.057-.07L8.108.07a.3.3 0 01.385.459L5.214 3.282h9.354L11.287.529a.3.3 0 01.385-.459l3.744 3.142a.315.315 0 01.056.069h3.275a1.036 1.036 0 011.034 1.035v1.918a1.035 1.035 0 01-1.034 1.033h-.587l-.8 8.044a1.147 1.147 0 01-1.145 1.035z"/><path data-name="Shape" d="M5.548 13.895a.3.3 0 00.3-.3V9.25a.3.3 0 10-.6 0v4.345a.3.3 0 00.3.3zM8.443 13.895a.3.3 0 00.3-.3V9.25a.3.3 0 00-.6 0v4.345a.3.3 0 00.3.3zM11.338 13.895a.3.3 0 00.3-.3V9.25a.3.3 0 10-.6 0v4.345a.3.3 0 00.3.3zM14.233 13.895a.3.3 0 00.3-.3V9.25a.3.3 0 00-.6 0v4.345a.3.3 0 00.3.3z"/></svg>