<svg xmlns="http://www.w3.org/2000/svg" viewBox="0 0 59.427 19.024"><path d="M53.033 19.024a9.771 9.771 0 01-2.235-.291 5.664 5.664 0 01-1.787-.672.836.836 0 01-.316-.336 6.344 6.344 0 01-.238-.916c-.018-.073-.135-.5-.329-1.2a7.153 7.153 0 01-.343-1.687c0-.254.083-.383.247-.383h.017c.157.009.3.226.422.646a5.127 5.127 0 002 2.742 5.576 5.576 0 003.329 1.108 4.615 4.615 0 003.078-1.067 3.3 3.3 0 001.259-2.6 3.147 3.147 0 00-1.16-2.465 13.3 13.3 0 00-3.428-1.463A11.115 11.115 0 0149.4 8.253a4.192 4.192 0 01-1.219-3.111 4.365 4.365 0 011.589-3.48 6.994 6.994 0 016.479-.937l.91.382a.572.572 0 00.238.053.5.5 0 00.316-.131L57.9.87a.172.172 0 01.146-.053h.013c.21 0 .316.218.316.646 0 .151.058.6.171 1.331l.211 1.358a5.438 5.438 0 01.066.541c0 .271-.093.409-.277.409-.14 0-.282-.213-.422-.633a4.434 4.434 0 00-1.934-2.347 5.976 5.976 0 00-3.249-.922 3.5 3.5 0 00-2.38.837 2.675 2.675 0 00-.956 2.09 3.055 3.055 0 00.619 1.912 3.505 3.505 0 001.18 1 32.606 32.606 0 003.145 1.148 8.57 8.57 0 013.658 2.106 4.448 4.448 0 011.22 3.128 5.139 5.139 0 01-1.794 4.035 6.761 6.761 0 01-4.6 1.568zM34.3 18.813c-.228 0-.343-.089-.343-.264s.146-.272.435-.316a1.7 1.7 0 001.4-1.16 11.759 11.759 0 00.376-3.613v-8a11.087 11.087 0 00-.329-3.5c-.219-.485-.774-.78-1.649-.877-.236-.017-.351-.106-.342-.264.008-.2.181-.3.514-.3a4.564 4.564 0 01.672.067A10.211 10.211 0 0036.405.7c.567 0 1.395-.05 2.453-.146.547-.044 1-.066 1.358-.066a7.164 7.164 0 014.476 1.325 4.184 4.184 0 011.721 3.461A4.747 4.747 0 0144.3 9.347a5.77 5.77 0 01-3.349 1.107 5.923 5.923 0 01-1.523-.184c-.459-.123-.683-.256-.666-.4.018-.107.1-.158.251-.158a1.146 1.146 0 01.264.04 3.713 3.713 0 00.976.092 4.349 4.349 0 003.038-1.041 3.582 3.582 0 001.14-2.768 4.2 4.2 0 00-1.5-3.3 5.624 5.624 0 00-3.81-1.305 1.032 1.032 0 00-.725.2 1.08 1.08 0 00-.2.752l-.014.382v11l-.014 1.279.04 1.107c.1 1.058.5 1.684 1.187 1.859a4.619 4.619 0 001.094.2c.263 0 .4.08.41.238a.286.286 0 01-.067.225.53.53 0 01-.4.118c-.147 0-.436-.017-.884-.053a25.791 25.791 0 00-1.371-.026l-.936-.026-1.029.013a9.654 9.654 0 00-1.173.053 6.6 6.6 0 01-.739.062zm-14.242 0c-.228 0-.343-.089-.343-.264s.147-.272.436-.316a1.7 1.7 0 001.4-1.16 11.793 11.793 0 00.375-3.613v-8a11.087 11.087 0 00-.329-3.5c-.218-.485-.773-.78-1.648-.877-.237-.017-.352-.106-.343-.264.009-.2.182-.3.515-.3a4.564 4.564 0 01.672.067A10.211 10.211 0 0022.164.7c.566 0 1.392-.05 2.453-.146.547-.044 1-.066 1.357-.066a7.169 7.169 0 014.477 1.325 4.184 4.184 0 011.72 3.461 4.745 4.745 0 01-2.11 4.074 5.765 5.765 0 01-3.348 1.107 5.923 5.923 0 01-1.523-.184c-.459-.123-.683-.255-.666-.4.018-.107.1-.158.25-.158a1.129 1.129 0 01.264.04 3.722 3.722 0 00.976.092 4.35 4.35 0 003.039-1.041 3.582 3.582 0 001.14-2.768 4.2 4.2 0 00-1.5-3.3 5.624 5.624 0 00-3.81-1.305 1.029 1.029 0 00-.725.2 1.075 1.075 0 00-.2.752l-.013.382v11l-.014 1.279.04 1.107c.1 1.058.495 1.684 1.186 1.859a4.62 4.62 0 001.094.2c.262 0 .4.08.409.238a.284.284 0 01-.066.225.531.531 0 01-.4.118c-.147 0-.436-.017-.883-.053a25.791 25.791 0 00-1.371-.026l-.936-.026-1.029.013a9.664 9.664 0 00-1.174.053 6.6 6.6 0 01-.746.061zm-15.19 0c-.091 0-.233 0-.448-.013l-1.265-.067c-.427-.017-.92-.026-1.463-.026-.254 0-.453 0-.593.014-.424.033-.693.052-.738.052-.236 0-.356-.08-.356-.237a.27.27 0 01.224-.277l.488-.145a1.883 1.883 0 00.712-.639 6.112 6.112 0 00.738-1.167l.383-.87L9.32.4c.114-.267.243-.4.38-.4s.258.125.356.383l5.669 14.5.29.712a6.425 6.425 0 001.028 1.985 3.438 3.438 0 001.661.613c.271.052.4.163.4.329-.009.149-.133.224-.37.224-.076 0-.235-.008-.5-.026-.452-.044-1.273-.066-2.439-.066a19.331 19.331 0 00-2.294.078 2.433 2.433 0 01-.409.053c-.228 0-.343-.093-.343-.277 0-.139.111-.232.329-.276l.409-.093a.8.8 0 00.66-.9 10.131 10.131 0 00-.8-2.782l-.659-1.74a2.283 2.283 0 00-.436-.837 2.046 2.046 0 00-.9-.112H6.579a2.767 2.767 0 00-1.213.158 2.888 2.888 0 00-.633 1.055l-.857 1.938A5.679 5.679 0 003.3 16.9a1.154 1.154 0 00.31.9 2.881 2.881 0 001.22.475c.263.052.4.158.409.316a.174.174 0 01-.044.135.448.448 0 01-.33.087zM8.982 3.731c-.059 0-.126.084-.2.251L6.209 9.69a1.567 1.567 0 00-.171.488c0 .227.2.342.607.342l.355.014h3.982c.438 0 .66-.111.66-.329a1.187 1.187 0 00-.067-.3l-.066-.238-2.07-5.22-.105-.277c-.1-.28-.22-.427-.343-.435z"/></svg>